# This file uses centimeters as units for non-parametric coordinates.

mtllib TropicalLand_02.mtl
g default
v -5.675355 0.390175 2.887491
v -1.666981 0.909893 1.918154
v 1.180504 1.032111 0.481277
v 3.289024 1.043989 -1.720828
v 5.311410 0.619057 -5.424097
v 5.017414 0.254881 -8.353157
v -5.900381 -0.002691 3.381142
v 6.238482 -0.002691 -5.404723
v 5.867579 -0.002691 -8.361996
v -5.620302 -0.002691 0.006258
v -2.749743 -0.002691 -0.617202
v -5.464372 0.403172 0.711401
v -2.155157 0.678600 0.340223
v -0.671842 -0.002691 -1.635785
v 0.181626 0.871316 -0.779640
v 0.836723 -0.002691 -3.271737
v 1.927154 0.873104 -2.512628
v 1.980223 -0.002691 -5.473172
v 3.156655 0.662148 -5.375454
v 2.426832 -0.002691 -7.826014
v 3.196735 0.327080 -7.869444
v 3.209694 -0.002691 -9.376381
v 4.934881 -0.002691 -9.694716
v -7.838520 -0.002691 0.386554
v -8.284499 -0.002691 2.160855
v -2.806608 0.556904 3.236558
v -0.529453 0.578730 2.897788
v -3.149767 -0.002691 4.029939
v -0.295532 -0.002691 3.636235
v 2.011663 0.593960 1.467598
v 2.471628 -0.002691 2.103819
v 3.951653 0.593051 -0.298058
v 4.567629 -0.002691 0.202532
v 4.805371 0.604678 -2.306733
v 5.702604 -0.002691 -2.158498
v -8.776573 -0.002691 1.104991
v 4.300426 0.816253 -5.356289
v 4.212165 0.340137 -8.181781
v 4.025231 -0.002691 -10.093278
v -5.549544 0.537206 1.828605
v 1.368094 0.487826 -2.888615
v 1.106479 0.899360 -1.523839
v 1.485144 -0.002691 -4.318319
v 2.569493 0.369416 -5.419067
v 2.662179 0.790283 -3.883356
v 2.226496 -0.002691 -6.694854
v 2.788992 0.198395 -7.687883
v 3.255676 0.499953 -6.728356
v -1.650826 0.545623 3.219523
v -0.378188 0.302171 3.287849
v -3.013105 0.293103 3.664210
v -1.729410 -0.002691 3.981397
v 0.746602 0.588190 2.272713
v 2.270666 0.302171 1.810711
v 1.133620 -0.002691 2.964740
v 3.100878 0.597235 0.600093
v 4.276503 0.302171 -0.007717
v 3.632074 -0.002691 1.190381
v 4.495307 0.562989 -1.191674
v 5.285288 0.312340 -2.266900
v 5.230964 -0.002691 -0.881618
v 5.213078 0.456038 -7.024925
v 5.460212 0.154271 -8.195845
v 5.780272 0.340689 -5.422975
v 6.154937 -0.002691 -7.024089
v -3.689611 0.744398 1.936558
v -2.593179 0.733953 2.690764
v -5.619349 0.497361 2.400989
v -4.203664 0.500883 3.125167
v -0.082854 0.985107 1.241327
v -1.907410 0.857682 1.028434
v 0.678513 1.044505 -0.162052
v 2.247438 1.055887 -0.464193
v 2.541590 1.047906 -2.150912
v 3.896283 0.963282 -3.610916
v 3.739597 0.796131 -5.352825
v 4.340390 0.584698 -6.889419
v 3.706441 0.360243 -8.022632
v -7.017751 0.213793 2.492966
v -5.630449 0.214807 3.207199
v -7.241027 -0.002691 2.793485
v 2.784103 -0.002691 -8.709303
v 3.240762 0.158158 -8.728878
v 3.614991 -0.002691 -9.858909
v 4.111747 0.154094 -9.204852
v 4.905117 0.112949 -9.157030
v 5.431542 -0.002691 -9.197814
v -6.768575 0.213793 0.650971
v -6.865716 -0.002691 0.189353
v -8.754997 -0.002691 1.595502
v -7.212342 0.279809 1.517569
v -4.538359 -0.002691 3.811573
v 1.636582 0.859601 1.024474
v -0.732533 0.794386 2.375752
v 3.494132 0.845036 -0.689467
v 4.251761 0.838796 -2.340684
v 6.063073 -0.002691 -3.724529
v 5.125441 0.643743 -3.783880
v 4.821246 0.767404 -5.390957
v 4.626509 0.312558 -8.297951
v 4.465652 -0.002691 -10.015875
v -5.499063 0.506025 1.238840
v -8.473277 -0.002691 0.696887
v -4.167714 -0.002691 -0.261764
v -2.442540 0.370267 -0.180390
v -5.340971 0.227284 0.295978
v -3.804993 0.552869 0.622282
v -1.608175 -0.002691 -1.062553
v -0.259138 0.487076 -1.245617
v -0.865934 0.791239 -0.142686
v 0.130426 -0.002691 -2.374870
v -3.974832 0.300557 0.142735
v -1.238792 0.437537 -0.646790
v 0.600868 0.503588 -1.966020
v 2.069408 0.440538 -4.094015
v 2.733035 0.282151 -6.700621
v -1.691462 0.302171 3.609695
v 0.978648 0.302171 2.641515
v 3.389487 0.302171 0.935456
v 4.873104 0.302171 -1.042272
v 5.674819 0.252874 -7.035515
v -3.916135 0.668652 2.581071
v -0.486129 0.971887 0.538099
v 1.682429 1.074117 -1.014994
v 3.271966 0.953059 -3.699987
v 3.810524 0.583675 -6.800029
v -6.728423 0.152188 2.874272
v 2.892150 0.123646 -8.463169
v 3.649044 0.170383 -9.001663
v 5.264409 0.080590 -9.016182
v -6.450112 0.152188 0.372811
v -7.214251 0.263082 2.042779
v -4.395048 0.265899 3.508548
v 0.360412 0.836521 1.812758
v 2.720224 0.872700 0.103857
v 4.102004 0.789550 -1.332324
v 5.619053 0.342845 -3.780285
v -1.608100 0.741311 2.814985
v 4.532645 0.855366 -3.683152
v 4.788088 0.554398 -6.970305
v 4.529851 0.138091 -9.250650
v -3.681242 0.703310 1.251926
v -7.052313 0.263082 1.019442
vt 0.643015 0.457137
vt 0.599716 0.477456
vt 0.597155 0.464194
vt 0.640101 0.444609
vt 0.599716 0.477456
vt 0.556418 0.497774
vt 0.558294 0.486003
vt 0.597155 0.464194
vt 0.597155 0.464194
vt 0.558294 0.486003
vt 0.550853 0.477058
vt 0.592693 0.449524
vt 0.640101 0.444609
vt 0.597155 0.464194
vt 0.592693 0.449524
vt 0.637754 0.426840
vt 0.709233 0.445008
vt 0.676124 0.451073
vt 0.677642 0.434379
vt 0.712118 0.431371
vt 0.676124 0.451073
vt 0.643015 0.457137
vt 0.640101 0.444609
vt 0.677642 0.434379
vt 0.677642 0.434379
vt 0.640101 0.444609
vt 0.637754 0.426840
vt 0.677664 0.415480
vt 0.712118 0.431371
vt 0.677642 0.434379
vt 0.677664 0.415480
vt 0.714469 0.412182
vt 0.774317 0.458566
vt 0.741775 0.451787
vt 0.745868 0.433453
vt 0.780986 0.442098
vt 0.741775 0.451787
vt 0.709233 0.445008
vt 0.712118 0.431371
vt 0.745868 0.433453
vt 0.745868 0.433453
vt 0.712118 0.431371
vt 0.714469 0.412182
vt 0.750218 0.413680
vt 0.780986 0.442098
vt 0.745868 0.433453
vt 0.750218 0.413680
vt 0.787816 0.422975
vt 0.844503 0.490791
vt 0.809410 0.474679
vt 0.819566 0.458783
vt 0.855407 0.481970
vt 0.809410 0.474679
vt 0.774317 0.458566
vt 0.780986 0.442098
vt 0.819566 0.458783
vt 0.819566 0.458783
vt 0.780986 0.442098
vt 0.787816 0.422975
vt 0.830173 0.443066
vt 0.855407 0.481970
vt 0.819566 0.458783
vt 0.830173 0.443066
vt 0.868867 0.470405
vt 0.895336 0.547309
vt 0.869919 0.519050
vt 0.882308 0.510125
vt 0.902373 0.535420
vt 0.869919 0.519050
vt 0.844503 0.490791
vt 0.855407 0.481970
vt 0.882308 0.510125
vt 0.882308 0.510125
vt 0.855407 0.481970
vt 0.868867 0.470405
vt 0.895480 0.501445
vt 0.902373 0.535420
vt 0.882308 0.510125
vt 0.895480 0.501445
vt 0.914471 0.530175
vt 0.631413 0.335718
vt 0.598338 0.347860
vt 0.590491 0.339247
vt 0.628102 0.323551
vt 0.598338 0.347860
vt 0.570123 0.368253
vt 0.557462 0.361576
vt 0.590491 0.339247
vt 0.590491 0.339247
vt 0.557462 0.361576
vt 0.544829 0.352199
vt 0.582919 0.330911
vt 0.628102 0.323551
vt 0.590491 0.339247
vt 0.582919 0.330911
vt 0.621009 0.309623
vt 0.718637 0.324930
vt 0.673548 0.328042
vt 0.672576 0.314945
vt 0.718779 0.311973
vt 0.673548 0.328042
vt 0.631413 0.335718
vt 0.628102 0.323551
vt 0.672576 0.314945
vt 0.672576 0.314945
vt 0.628102 0.323551
vt 0.621009 0.309623
vt 0.670550 0.304333
vt 0.718779 0.311973
vt 0.672576 0.314945
vt 0.670550 0.304333
vt 0.720091 0.299043
vt 0.797286 0.333035
vt 0.760579 0.326477
vt 0.761577 0.313179
vt 0.799968 0.320180
vt 0.760579 0.326477
vt 0.718637 0.324930
vt 0.718779 0.311973
vt 0.761577 0.313179
vt 0.761577 0.313179
vt 0.718779 0.311973
vt 0.720091 0.299043
vt 0.762898 0.302655
vt 0.799968 0.320180
vt 0.761577 0.313179
vt 0.762898 0.302655
vt 0.805706 0.306267
vt 0.853937 0.366474
vt 0.826672 0.344954
vt 0.832952 0.334595
vt 0.864864 0.356920
vt 0.826672 0.344954
vt 0.797286 0.333035
vt 0.799968 0.320180
vt 0.832952 0.334595
vt 0.832952 0.334595
vt 0.799968 0.320180
vt 0.805706 0.306267
vt 0.838756 0.324294
vt 0.864864 0.356920
vt 0.832952 0.334595
vt 0.838756 0.324294
vt 0.871806 0.342321
vt 0.967285 0.509324
vt 0.948260 0.473609
vt 0.959648 0.465602
vt 0.977420 0.500956
vt 0.948260 0.473609
vt 0.921997 0.433024
vt 0.933349 0.424606
vt 0.959648 0.465602
vt 0.959648 0.465602
vt 0.933349 0.424606
vt 0.947819 0.414384
vt 0.971088 0.456733
vt 0.977420 0.500956
vt 0.959648 0.465602
vt 0.971088 0.456733
vt 0.994357 0.499082
vt 0.621356 0.379834
vt 0.571972 0.415584
vt 0.554944 0.404006
vt 0.588388 0.375433
vt 0.571972 0.415584
vt 0.528794 0.451486
vt 0.516858 0.438853
vt 0.554944 0.404006
vt 0.554944 0.404006
vt 0.516858 0.438853
vt 0.506794 0.428056
vt 0.538233 0.395955
vt 0.588388 0.375433
vt 0.554944 0.404006
vt 0.538233 0.395955
vt 0.570123 0.368253
vt 0.621356 0.379834
vt 0.671888 0.367900
vt 0.674692 0.392172
vt 0.631447 0.405715
vt 0.671888 0.367900
vt 0.716130 0.363725
vt 0.715468 0.388311
vt 0.674692 0.392172
vt 0.674692 0.392172
vt 0.715468 0.388311
vt 0.714469 0.412182
vt 0.677664 0.415480
vt 0.631447 0.405715
vt 0.674692 0.392172
vt 0.677664 0.415480
vt 0.637754 0.426840
vt 0.716130 0.363725
vt 0.758926 0.367563
vt 0.755080 0.391032
vt 0.715468 0.388311
vt 0.758926 0.367563
vt 0.806676 0.379400
vt 0.796245 0.403207
vt 0.755080 0.391032
vt 0.755080 0.391032
vt 0.796245 0.403207
vt 0.787816 0.422975
vt 0.750218 0.413680
vt 0.715468 0.388311
vt 0.755080 0.391032
vt 0.750218 0.413680
vt 0.714469 0.412182
vt 0.806676 0.379400
vt 0.855228 0.414373
vt 0.841681 0.427706
vt 0.796245 0.403207
vt 0.855228 0.414373
vt 0.896264 0.449472
vt 0.882601 0.459424
vt 0.841681 0.427706
vt 0.841681 0.427706
vt 0.882601 0.459424
vt 0.868867 0.470405
vt 0.830173 0.443066
vt 0.796245 0.403207
vt 0.841681 0.427706
vt 0.830173 0.443066
vt 0.787816 0.422975
vt 0.896264 0.449472
vt 0.924670 0.485940
vt 0.910219 0.493254
vt 0.882601 0.459424
vt 0.924670 0.485940
vt 0.944687 0.519578
vt 0.929574 0.524768
vt 0.910219 0.493254
vt 0.910219 0.493254
vt 0.929574 0.524768
vt 0.914471 0.530175
vt 0.895480 0.501445
vt 0.882601 0.459424
vt 0.910219 0.493254
vt 0.895480 0.501445
vt 0.868867 0.470405
vt 0.506794 0.428056
vt 0.479928 0.461644
vt 0.481490 0.447222
vt 0.500630 0.420164
vt 0.450171 0.498314
vt 0.470503 0.458355
vt 0.481490 0.447222
vt 0.479928 0.461644
vt 0.490836 0.418395
vt 0.500630 0.420164
vt 0.481490 0.447222
vt 0.470503 0.458355
vt 0.895336 0.547309
vt 0.902373 0.535420
vt 0.917709 0.550025
vt 0.919493 0.557928
vt 0.914471 0.530175
vt 0.930300 0.550583
vt 0.917709 0.550025
vt 0.902373 0.535420
vt 0.943650 0.568547
vt 0.919493 0.557928
vt 0.917709 0.550025
vt 0.930300 0.550583
vt 0.943650 0.568547
vt 0.930300 0.550583
vt 0.945702 0.549540
vt 0.960217 0.570940
vt 0.930300 0.550583
vt 0.914471 0.530175
vt 0.929574 0.524768
vt 0.945702 0.549540
vt 0.945702 0.549540
vt 0.929574 0.524768
vt 0.944687 0.519578
vt 0.960561 0.546188
vt 0.960217 0.570940
vt 0.945702 0.549540
vt 0.960561 0.546188
vt 0.976785 0.573334
vt 0.990531 0.545715
vt 0.979431 0.531168
vt 0.985140 0.520984
vt 0.992444 0.522398
vt 0.967285 0.509324
vt 0.977420 0.500956
vt 0.985140 0.520984
vt 0.979431 0.531168
vt 0.994357 0.499082
vt 0.992444 0.522398
vt 0.985140 0.520984
vt 0.977420 0.500956
vt 0.550853 0.477058
vt 0.558294 0.486003
vt 0.533005 0.502910
vt 0.520607 0.502967
vt 0.556418 0.497774
vt 0.526208 0.514797
vt 0.533005 0.502910
vt 0.558294 0.486003
vt 0.495999 0.531820
vt 0.520607 0.502967
vt 0.533005 0.502910
vt 0.526208 0.514797
vt 0.460276 0.530692
vt 0.455224 0.514503
vt 0.484587 0.476083
vt 0.494033 0.488787
vt 0.455224 0.514503
vt 0.450171 0.498314
vt 0.479928 0.461644
vt 0.484587 0.476083
vt 0.484587 0.476083
vt 0.479928 0.461644
vt 0.506794 0.428056
vt 0.516858 0.438853
vt 0.494033 0.488787
vt 0.484587 0.476083
vt 0.516858 0.438853
vt 0.528794 0.451486
vt 0.506794 0.428056
vt 0.500630 0.420164
vt 0.526731 0.390082
vt 0.538233 0.395955
vt 0.500630 0.420164
vt 0.490836 0.418395
vt 0.517832 0.385297
vt 0.526731 0.390082
vt 0.526731 0.390082
vt 0.517832 0.385297
vt 0.544829 0.352199
vt 0.557462 0.361576
vt 0.538233 0.395955
vt 0.526731 0.390082
vt 0.557462 0.361576
vt 0.570123 0.368253
vt 0.716130 0.363725
vt 0.671888 0.367900
vt 0.672413 0.346109
vt 0.717471 0.342389
vt 0.671888 0.367900
vt 0.621356 0.379834
vt 0.632889 0.352362
vt 0.672413 0.346109
vt 0.672413 0.346109
vt 0.632889 0.352362
vt 0.631413 0.335718
vt 0.673548 0.328042
vt 0.717471 0.342389
vt 0.672413 0.346109
vt 0.673548 0.328042
vt 0.718637 0.324930
vt 0.806676 0.379400
vt 0.758926 0.367563
vt 0.760227 0.345325
vt 0.795833 0.350982
vt 0.758926 0.367563
vt 0.716130 0.363725
vt 0.717471 0.342389
vt 0.760227 0.345325
vt 0.760227 0.345325
vt 0.717471 0.342389
vt 0.718637 0.324930
vt 0.760579 0.326477
vt 0.795833 0.350982
vt 0.760227 0.345325
vt 0.760579 0.326477
vt 0.797286 0.333035
vt 0.853937 0.366474
vt 0.837520 0.374943
vt 0.819441 0.355429
vt 0.826672 0.344954
vt 0.806676 0.379400
vt 0.795833 0.350982
vt 0.819441 0.355429
vt 0.837520 0.374943
vt 0.797286 0.333035
vt 0.826672 0.344954
vt 0.819441 0.355429
vt 0.795833 0.350982
vt 0.947819 0.414384
vt 0.933349 0.424606
vt 0.900042 0.387651
vt 0.909813 0.378353
vt 0.933349 0.424606
vt 0.921997 0.433024
vt 0.888134 0.396572
vt 0.900042 0.387651
vt 0.900042 0.387651
vt 0.888134 0.396572
vt 0.853937 0.366474
vt 0.864864 0.356920
vt 0.909813 0.378353
vt 0.900042 0.387651
vt 0.864864 0.356920
vt 0.871806 0.342321
vt 0.621356 0.379834
vt 0.588388 0.375433
vt 0.606735 0.357029
vt 0.632889 0.352362
vt 0.570123 0.368253
vt 0.598338 0.347860
vt 0.606735 0.357029
vt 0.588388 0.375433
vt 0.631413 0.335718
vt 0.632889 0.352362
vt 0.606735 0.357029
vt 0.598338 0.347860
vt 0.921997 0.433024
vt 0.909516 0.440992
vt 0.871955 0.404737
vt 0.888134 0.396572
vt 0.909516 0.440992
vt 0.896264 0.449472
vt 0.855228 0.414373
vt 0.871955 0.404737
vt 0.871955 0.404737
vt 0.855228 0.414373
vt 0.806676 0.379400
vt 0.837520 0.374943
vt 0.888134 0.396572
vt 0.871955 0.404737
vt 0.837520 0.374943
vt 0.853937 0.366474
vt 0.921997 0.433024
vt 0.948260 0.473609
vt 0.936975 0.479890
vt 0.909516 0.440992
vt 0.948260 0.473609
vt 0.967285 0.509324
vt 0.956816 0.514981
vt 0.936975 0.479890
vt 0.936975 0.479890
vt 0.956816 0.514981
vt 0.944687 0.519578
vt 0.924670 0.485940
vt 0.909516 0.440992
vt 0.936975 0.479890
vt 0.924670 0.485940
vt 0.896264 0.449472
vt 0.976785 0.573334
vt 0.960561 0.546188
vt 0.971520 0.539816
vt 0.983658 0.559524
vt 0.960561 0.546188
vt 0.944687 0.519578
vt 0.956816 0.514981
vt 0.971520 0.539816
vt 0.971520 0.539816
vt 0.956816 0.514981
vt 0.967285 0.509324
vt 0.979431 0.531168
vt 0.983658 0.559524
vt 0.971520 0.539816
vt 0.979431 0.531168
vt 0.990531 0.545715
vt 0.528794 0.451486
vt 0.571972 0.415584
vt 0.584426 0.432038
vt 0.540573 0.464887
vt 0.571972 0.415584
vt 0.621356 0.379834
vt 0.631447 0.405715
vt 0.584426 0.432038
vt 0.584426 0.432038
vt 0.631447 0.405715
vt 0.637754 0.426840
vt 0.592693 0.449524
vt 0.540573 0.464887
vt 0.584426 0.432038
vt 0.592693 0.449524
vt 0.550853 0.477058
vt 0.550853 0.477058
vt 0.520607 0.502967
vt 0.506828 0.498004
vt 0.540573 0.464887
vt 0.520607 0.502967
vt 0.495999 0.531820
vt 0.478137 0.531256
vt 0.506828 0.498004
vt 0.506828 0.498004
vt 0.478137 0.531256
vt 0.460276 0.530692
vt 0.494033 0.488787
vt 0.540573 0.464887
vt 0.506828 0.498004
vt 0.494033 0.488787
vt 0.528794 0.451486
vn -0.187217 0.804166 -0.564151
vn -0.127479 0.817112 -0.562208
vn -0.126300 0.860541 -0.493474
vn -0.187770 0.849893 -0.492366
vn -0.095380 0.827181 -0.553781
vn -0.101629 0.870198 -0.482106
vn -0.108012 0.952446 -0.284922
vn -0.114607 0.945359 -0.305224
vn -0.153615 0.942037 -0.298276
vn -0.388577 0.765638 -0.512647
vn -0.288954 0.780532 -0.554324
vn -0.280235 0.832034 -0.478736
vn -0.355847 0.819496 -0.449220
vn -0.204125 0.939006 -0.276769
vn -0.233216 0.936208 -0.262917
vn -0.489050 0.797747 -0.352746
vn -0.453350 0.778209 -0.434585
vn -0.404590 0.825015 -0.394535
vn -0.440773 0.836016 -0.326797
vn -0.253430 0.934985 -0.248145
vn -0.284049 0.931723 -0.226291
vn -0.514300 0.837656 -0.183923
vn -0.509080 0.814443 -0.278425
vn -0.463227 0.847181 -0.260202
vn -0.465412 0.867274 -0.176715
vn -0.308965 0.930008 -0.199063
vn -0.306635 0.938121 -0.160945
vn -0.472559 0.873095 -0.119974
vn -0.496282 0.861708 -0.105654
vn -0.444514 0.888619 -0.112975
vn -0.413243 0.902849 -0.118716
vn -0.275096 0.951796 -0.135667
vn -0.224893 0.962110 -0.154170
vn 0.164850 0.880634 0.444194
vn 0.060967 0.882871 0.465640
vn 0.082367 0.802550 0.590872
vn 0.208440 0.796510 0.567560
vn -0.036555 0.912354 0.407767
vn -0.033646 0.819312 0.572360
vn -0.043023 0.777837 0.626992
vn 0.080229 0.768204 0.635159
vn 0.216074 0.760101 0.612828
vn 0.274210 0.878797 0.390544
vn 0.225640 0.882111 0.413481
vn 0.294136 0.797453 0.526832
vn 0.349523 0.796524 0.493339
vn 0.315037 0.759232 0.569489
vn 0.376921 0.758126 0.532142
vn 0.385564 0.875252 0.292017
vn 0.321889 0.878989 0.351804
vn 0.406450 0.795944 0.448632
vn 0.477102 0.800124 0.363559
vn 0.438698 0.757788 0.483012
vn 0.510143 0.768092 0.387025
vn 0.448637 0.884148 0.130410
vn 0.451549 0.869412 0.200564
vn 0.529833 0.812940 0.241671
vn 0.545555 0.822935 0.158582
vn 0.557413 0.788846 0.258869
vn 0.578063 0.798612 0.167518
vn 0.210045 0.961335 -0.178090
vn 0.316304 0.938423 -0.138974
vn 0.447654 0.888285 -0.102743
vn 0.344406 0.927112 -0.147811
vn 0.395848 0.917621 -0.035717
vn 0.533521 0.845743 -0.008632
vn 0.573027 0.819521 0.005070
vn 0.489618 0.868482 -0.077546
vn 0.367301 0.920935 -0.130267
vn -0.043516 0.996963 0.064588
vn -0.091472 0.995616 0.019512
vn -0.090165 0.983232 0.158510
vn -0.051850 0.978635 0.198959
vn -0.127100 0.991883 -0.003659
vn -0.138062 0.982646 0.123881
vn -0.157517 0.940820 0.300077
vn -0.099133 0.930758 0.351940
vn 0.006286 0.995112 0.098548
vn -0.097514 0.992639 -0.071823
vn -0.100036 0.989909 -0.100362
vn 0.053658 0.992011 0.114168
vn -0.082469 0.995026 -0.055870
vn 0.091013 0.991669 0.091150
vn -0.065211 0.996049 -0.060281
vn 0.117233 0.992336 0.039064
vn -0.068893 0.994322 -0.081097
vn 0.089190 0.995576 -0.029552
vn -0.090845 0.990317 -0.104973
vn 0.043500 0.994145 -0.098913
vn -0.106499 0.985687 -0.130689
vn 0.009765 0.986833 -0.161446
vn -0.094454 0.983323 -0.155414
vn -0.005040 0.983203 -0.182446
vn -0.079581 0.981108 -0.176333
vn -0.218077 0.937754 0.270297
vn -0.242579 0.824354 0.511465
vn -0.185794 0.822920 0.536919
vn -0.221867 0.953050 0.206084
vn -0.276842 0.851140 0.446003
vn -0.231280 0.737091 0.634985
vn -0.374338 0.909285 -0.181858
vn -0.378725 0.899642 -0.217280
vn -0.216214 0.955342 -0.201429
vn -0.224082 0.951684 -0.209964
vn -0.103343 0.976483 -0.189210
vn -0.103232 0.977077 -0.186181
vn -0.018883 0.983327 -0.180862
vn -0.023374 0.983385 -0.180021
vn 0.140023 0.970023 -0.198619
vn 0.154358 0.969276 -0.191515
vn 0.246241 0.953510 -0.173733
vn 0.252719 0.950416 -0.181225
vn -0.097616 0.886261 -0.452783
vn -0.119830 0.951996 -0.281680
vn -0.101514 0.893558 -0.437321
vn -0.126306 0.956908 -0.261482
vn -0.168570 0.985011 -0.036570
vn -0.187100 0.980889 0.053394
vn -0.183654 0.977879 0.100116
vn -0.159457 0.986869 -0.025759
vn -0.121109 0.823955 0.553562
vn -0.140062 0.773124 0.618597
vn 0.121716 0.956266 0.265969
vn 0.176142 0.948193 0.264392
vn 0.075194 0.963044 0.258633
vn 0.217628 0.949321 0.226777
vn 0.252919 0.949795 0.184177
vn 0.283836 0.955880 0.075695
vn 0.319617 0.936584 0.143721
vn 0.556428 0.825757 0.092271
vn 0.595186 0.797631 0.097662
vn 0.428123 0.901099 0.068790
vn 0.025632 0.960185 0.278185
vn 0.199833 0.977677 -0.064913
vn 0.249479 0.968050 0.025272
vn 0.131769 0.979044 -0.155274
vn 0.079454 0.979587 -0.184654
vn 0.063781 0.980533 -0.185706
vn 0.052588 0.981568 -0.183733
vn -0.100682 0.987560 -0.120781
vn -0.117774 0.984937 -0.126606
vn -0.140119 0.979741 -0.143088
vn -0.150848 0.980136 -0.128757
s 1
g pTorus6 pTorus5SmoothProxyGroup
usemtl initialShadingGroup
f 11/1/1 104/5/2 112/14/3 105/23/4
f 104/5/2 10/297/5 106/294/6 112/14/3
f 112/14/3 106/294/6 12/472/7 107/468/8
f 105/23/4 112/14/3 107/468/8 13/27/9
f 14/17/10 108/21/11 113/30/12 109/39/13
f 108/21/11 11/1/1 105/23/4 113/30/12
f 113/30/12 105/23/4 13/27/9 110/188/14
f 109/39/13 113/30/12 110/188/14 15/43/15
f 16/33/16 111/37/17 114/46/18 41/55/19
f 111/37/17 14/17/10 109/39/13 114/46/18
f 114/46/18 109/39/13 15/43/15 42/204/20
f 41/55/19 114/46/18 42/204/20 17/59/21
f 18/49/22 43/53/23 115/62/24 44/71/25
f 43/53/23 16/33/16 41/55/19 115/62/24
f 115/62/24 41/55/19 17/59/21 45/220/26
f 44/71/25 115/62/24 45/220/26 19/240/27
f 20/65/28 46/69/29 116/78/30 47/254/31
f 46/69/29 18/49/22 44/71/25 116/78/30
f 116/78/30 44/71/25 19/240/27 48/236/32
f 47/254/31 116/78/30 48/236/32 21/270/33
f 27/347/34 49/402/35 117/94/36 50/103/37
f 49/402/35 26/176/38 51/332/39 117/94/36
f 117/94/36 51/332/39 28/91/40 52/95/41
f 50/103/37 117/94/36 52/95/41 29/107/42
f 30/363/43 53/348/44 118/110/45 54/119/46
f 53/348/44 27/347/34 50/103/37 118/110/45
f 118/110/45 50/103/37 29/107/42 55/111/47
f 54/119/46 118/110/45 55/111/47 31/123/48
f 32/377/49 56/364/50 119/126/51 57/135/52
f 56/364/50 30/363/43 54/119/46 119/126/51
f 119/126/51 54/119/46 31/123/48 58/127/53
f 57/135/52 119/126/51 58/127/53 33/139/54
f 34/369/55 59/378/56 120/142/57 60/392/58
f 59/378/56 32/377/49 57/135/52 120/142/57
f 120/142/57 57/135/52 33/139/54 61/143/59
f 60/392/58 120/142/57 61/143/59 35/396/60
f 6/451/61 62/426/62 121/158/63 63/286/64
f 62/426/62 5/386/65 64/382/66 121/158/63
f 121/158/63 64/382/66 8/155/67 65/159/68
f 63/286/64 121/158/63 65/159/68 9/289/69
f 2/161/70 66/458/71 122/174/72 67/398/73
f 66/458/71 40/320/74 68/316/75 122/174/72
f 122/174/72 68/316/75 1/171/76 69/333/77
f 67/398/73 122/174/72 69/333/77 26/176/38
f 2/161/70 70/338/78 123/190/79 71/463/80
f 70/338/78 3/358/81 72/205/82 123/190/79
f 123/190/79 72/205/82 15/43/15 110/188/14
f 71/463/80 123/190/79 110/188/14 13/27/9
f 3/358/81 73/354/83 124/206/84 72/205/82
f 73/354/83 4/209/85 74/221/86 124/206/84
f 124/206/84 74/221/86 17/59/21 42/204/20
f 72/205/82 124/206/84 42/204/20 15/43/15
f 4/209/85 75/415/87 125/222/88 74/221/86
f 75/415/87 37/225/89 76/237/90 125/222/88
f 125/222/88 76/237/90 19/240/27 45/220/26
f 74/221/86 125/222/88 45/220/26 17/59/21
f 37/225/89 77/436/91 126/238/92 76/237/90
f 77/436/91 38/275/93 78/271/94 126/238/92
f 126/238/92 78/271/94 21/270/33 48/236/32
f 76/237/90 126/238/92 48/236/32 19/240/27
f 1/171/76 79/311/95 127/251/96 80/322/97
f 25/245/98 81/252/99 127/251/96 79/311/95
f 7/326/100 80/322/97 127/251/96 81/252/99
f 20/65/28 47/254/31 128/263/101 82/256/102
f 21/270/33 83/266/103 128/263/101 47/254/31
f 22/261/104 82/256/102 128/263/101 83/266/103
f 22/261/104 83/266/103 129/278/105 84/268/106
f 83/266/103 21/270/33 78/271/94 129/278/105
f 129/278/105 78/271/94 38/275/93 85/442/107
f 84/268/106 129/278/105 85/442/107 39/280/108
f 23/456/109 86/452/110 130/291/111 87/284/112
f 6/451/61 63/286/64 130/291/111 86/452/110
f 9/289/69 87/284/112 130/291/111 63/286/64
f 12/472/7 106/294/6 131/303/113 88/474/114
f 10/297/5 89/304/115 131/303/113 106/294/6
f 24/478/116 88/474/114 131/303/113 89/304/115
f 36/305/117 90/309/118 132/318/119 91/484/120
f 90/309/118 25/245/98 79/311/95 132/318/119
f 132/318/119 79/311/95 1/171/76 68/316/75
f 91/484/120 132/318/119 68/316/75 40/320/74
f 1/171/76 80/322/97 133/334/121 69/333/77
f 80/322/97 7/326/100 92/330/122 133/334/121
f 133/334/121 92/330/122 28/91/40 51/332/39
f 69/333/77 133/334/121 51/332/39 26/176/38
f 3/358/81 70/338/78 134/350/123 93/359/124
f 70/338/78 2/161/70 94/406/125 134/350/123
f 134/350/123 94/406/125 27/347/34 53/348/44
f 93/359/124 134/350/123 53/348/44 30/363/43
f 4/209/85 73/354/83 135/366/126 95/374/127
f 73/354/83 3/358/81 93/359/124 135/366/126
f 135/366/126 93/359/124 30/363/43 56/364/50
f 95/374/127 135/366/126 56/364/50 32/377/49
f 34/369/55 96/420/128 136/379/129 59/378/56
f 4/209/85 95/374/127 136/379/129 96/420/128
f 32/377/49 59/378/56 136/379/129 95/374/127
f 8/155/67 64/382/66 137/394/130 97/384/131
f 64/382/66 5/386/65 98/421/132 137/394/130
f 137/394/130 98/421/132 34/369/55 60/392/58
f 97/384/131 137/394/130 60/392/58 35/396/60
f 2/161/70 67/398/73 138/407/133 94/406/125
f 26/176/38 49/402/35 138/407/133 67/398/73
f 27/347/34 94/406/125 138/407/133 49/402/35
f 5/386/65 99/437/134 139/422/135 98/421/132
f 99/437/134 37/225/89 75/415/87 139/422/135
f 139/422/135 75/415/87 4/209/85 96/420/128
f 98/421/132 139/422/135 96/420/128 34/369/55
f 5/386/65 62/426/62 140/438/136 99/437/134
f 62/426/62 6/451/61 100/447/137 140/438/136
f 140/438/136 100/447/137 38/275/93 77/436/91
f 99/437/134 140/438/136 77/436/91 37/225/89
f 39/280/108 85/442/107 141/454/138 101/444/139
f 85/442/107 38/275/93 100/447/137 141/454/138
f 141/454/138 100/447/137 6/451/61 86/452/110
f 101/444/139 141/454/138 86/452/110 23/456/109
f 40/320/74 66/458/71 142/470/140 102/485/141
f 66/458/71 2/161/70 71/463/80 142/470/140
f 142/470/140 71/463/80 13/27/9 107/468/8
f 102/485/141 142/470/140 107/468/8 12/472/7
f 12/472/7 88/474/114 143/486/142 102/485/141
f 88/474/114 24/478/116 103/482/143 143/486/142
f 143/486/142 103/482/143 36/305/117 91/484/120
f 102/485/141 143/486/142 91/484/120 40/320/74
